<mxfile host="app.diagrams.net" agent="Mozilla/5.0 (Windows NT 10.0; Win64; x64) AppleWebKit/537.36 (KHTML, like Gecko) Chrome/132.0.0.0 Safari/537.36" version="26.0.6">
  <diagram name="Страница — 1" id="9NiimSxPzum7eCI0e3P5">
    <mxGraphModel dx="2049" dy="1066" grid="1" gridSize="10" guides="1" tooltips="1" connect="1" arrows="1" fold="1" page="1" pageScale="1" pageWidth="2339" pageHeight="3300" math="0" shadow="0">
      <root>
        <mxCell id="0" />
        <mxCell id="1" parent="0" />
        <mxCell id="WUC8Y3ZfEU8SXZrQRKzo-22" style="edgeStyle=orthogonalEdgeStyle;rounded=0;orthogonalLoop=1;jettySize=auto;html=1;exitX=1;exitY=0.25;exitDx=0;exitDy=0;entryX=0;entryY=0.25;entryDx=0;entryDy=0;fontSize=17;" edge="1" parent="1" source="WUC8Y3ZfEU8SXZrQRKzo-1" target="WUC8Y3ZfEU8SXZrQRKzo-12">
          <mxGeometry relative="1" as="geometry" />
        </mxCell>
        <mxCell id="WUC8Y3ZfEU8SXZrQRKzo-24" style="edgeStyle=orthogonalEdgeStyle;rounded=0;orthogonalLoop=1;jettySize=auto;html=1;exitX=0;exitY=0.75;exitDx=0;exitDy=0;fontSize=17;" edge="1" parent="1" source="WUC8Y3ZfEU8SXZrQRKzo-1">
          <mxGeometry relative="1" as="geometry">
            <mxPoint x="340" y="412.16666666666674" as="targetPoint" />
          </mxGeometry>
        </mxCell>
        <mxCell id="WUC8Y3ZfEU8SXZrQRKzo-1" value="Контроллер Entity&lt;div&gt;&lt;span style=&quot;background-color: transparent; color: light-dark(rgb(0, 0, 0), rgb(255, 255, 255));&quot;&gt;&lt;br&gt;&lt;/span&gt;&lt;/div&gt;&lt;div&gt;&lt;span style=&quot;background-color: transparent; color: light-dark(rgb(0, 0, 0), rgb(255, 255, 255));&quot;&gt;(Carrier, Driver и тд.)&lt;/span&gt;&lt;/div&gt;" style="rounded=0;whiteSpace=wrap;html=1;fontSize=17;fillColor=#e1d5e7;strokeColor=#9673a6;" vertex="1" parent="1">
          <mxGeometry x="510" y="330" width="160" height="110" as="geometry" />
        </mxCell>
        <mxCell id="WUC8Y3ZfEU8SXZrQRKzo-8" value="" style="endArrow=classic;html=1;rounded=0;fontSize=17;" edge="1" parent="1">
          <mxGeometry width="50" height="50" relative="1" as="geometry">
            <mxPoint x="340" y="360" as="sourcePoint" />
            <mxPoint x="510" y="360" as="targetPoint" />
          </mxGeometry>
        </mxCell>
        <mxCell id="WUC8Y3ZfEU8SXZrQRKzo-10" value="Запрос" style="text;html=1;align=center;verticalAlign=middle;whiteSpace=wrap;rounded=0;fontSize=17;fontStyle=1" vertex="1" parent="1">
          <mxGeometry x="390" y="325" width="60" height="30" as="geometry" />
        </mxCell>
        <mxCell id="WUC8Y3ZfEU8SXZrQRKzo-27" style="edgeStyle=orthogonalEdgeStyle;rounded=0;orthogonalLoop=1;jettySize=auto;html=1;exitX=0;exitY=0.75;exitDx=0;exitDy=0;entryX=1;entryY=0.75;entryDx=0;entryDy=0;fontSize=17;" edge="1" parent="1" source="WUC8Y3ZfEU8SXZrQRKzo-12" target="WUC8Y3ZfEU8SXZrQRKzo-1">
          <mxGeometry relative="1" as="geometry" />
        </mxCell>
        <mxCell id="WUC8Y3ZfEU8SXZrQRKzo-30" style="edgeStyle=orthogonalEdgeStyle;rounded=0;orthogonalLoop=1;jettySize=auto;html=1;exitX=1;exitY=0.25;exitDx=0;exitDy=0;entryX=0;entryY=0.25;entryDx=0;entryDy=0;fontSize=17;" edge="1" parent="1" source="WUC8Y3ZfEU8SXZrQRKzo-12" target="WUC8Y3ZfEU8SXZrQRKzo-19">
          <mxGeometry relative="1" as="geometry" />
        </mxCell>
        <mxCell id="WUC8Y3ZfEU8SXZrQRKzo-36" style="edgeStyle=orthogonalEdgeStyle;rounded=0;orthogonalLoop=1;jettySize=auto;html=1;exitX=0.5;exitY=0;exitDx=0;exitDy=0;entryX=0.5;entryY=1;entryDx=0;entryDy=0;fontSize=17;" edge="1" parent="1" source="WUC8Y3ZfEU8SXZrQRKzo-12" target="WUC8Y3ZfEU8SXZrQRKzo-34">
          <mxGeometry relative="1" as="geometry" />
        </mxCell>
        <mxCell id="WUC8Y3ZfEU8SXZrQRKzo-39" style="edgeStyle=orthogonalEdgeStyle;rounded=0;orthogonalLoop=1;jettySize=auto;html=1;exitX=0.5;exitY=1;exitDx=0;exitDy=0;entryX=0.5;entryY=0;entryDx=0;entryDy=0;fontSize=17;" edge="1" parent="1" source="WUC8Y3ZfEU8SXZrQRKzo-12" target="WUC8Y3ZfEU8SXZrQRKzo-37">
          <mxGeometry relative="1" as="geometry" />
        </mxCell>
        <mxCell id="WUC8Y3ZfEU8SXZrQRKzo-12" value="Queue BackgroundService" style="rounded=0;whiteSpace=wrap;html=1;fontSize=17;fillColor=#f8cecc;strokeColor=#b85450;" vertex="1" parent="1">
          <mxGeometry x="836" y="330" width="150" height="110" as="geometry" />
        </mxCell>
        <mxCell id="WUC8Y3ZfEU8SXZrQRKzo-15" value="IRequest" style="text;html=1;align=center;verticalAlign=middle;whiteSpace=wrap;rounded=0;fontSize=17;fontStyle=1" vertex="1" parent="1">
          <mxGeometry x="720" y="326" width="60" height="30" as="geometry" />
        </mxCell>
        <mxCell id="WUC8Y3ZfEU8SXZrQRKzo-16" value="id задачи" style="text;html=1;align=center;verticalAlign=middle;whiteSpace=wrap;rounded=0;fontSize=17;fontStyle=1" vertex="1" parent="1">
          <mxGeometry x="720" y="376" width="60" height="30" as="geometry" />
        </mxCell>
        <mxCell id="WUC8Y3ZfEU8SXZrQRKzo-11" value="id задачи" style="text;html=1;align=center;verticalAlign=middle;whiteSpace=wrap;rounded=0;fontSize=17;fontStyle=1" vertex="1" parent="1">
          <mxGeometry x="390" y="375" width="60" height="30" as="geometry" />
        </mxCell>
        <mxCell id="WUC8Y3ZfEU8SXZrQRKzo-31" style="edgeStyle=orthogonalEdgeStyle;rounded=0;orthogonalLoop=1;jettySize=auto;html=1;exitX=0;exitY=0.75;exitDx=0;exitDy=0;entryX=1;entryY=0.75;entryDx=0;entryDy=0;fontSize=17;" edge="1" parent="1" source="WUC8Y3ZfEU8SXZrQRKzo-19" target="WUC8Y3ZfEU8SXZrQRKzo-12">
          <mxGeometry relative="1" as="geometry" />
        </mxCell>
        <mxCell id="WUC8Y3ZfEU8SXZrQRKzo-19" value="Mediator" style="rounded=0;whiteSpace=wrap;html=1;fontSize=17;fillColor=#ffe6cc;strokeColor=#d79b00;" vertex="1" parent="1">
          <mxGeometry x="1110" y="330" width="150" height="110" as="geometry" />
        </mxCell>
        <mxCell id="WUC8Y3ZfEU8SXZrQRKzo-25" value="Клиент" style="rounded=1;whiteSpace=wrap;html=1;fontSize=17;fillColor=#d5e8d4;strokeColor=#82b366;" vertex="1" parent="1">
          <mxGeometry x="180" y="160" width="160" height="450" as="geometry" />
        </mxCell>
        <mxCell id="WUC8Y3ZfEU8SXZrQRKzo-26" value="IRequest" style="text;html=1;align=center;verticalAlign=middle;whiteSpace=wrap;rounded=0;fontSize=17;fontStyle=1" vertex="1" parent="1">
          <mxGeometry x="1020" y="325" width="60" height="30" as="geometry" />
        </mxCell>
        <mxCell id="WUC8Y3ZfEU8SXZrQRKzo-33" value="Результат" style="text;html=1;align=center;verticalAlign=middle;whiteSpace=wrap;rounded=0;fontSize=17;fontStyle=1" vertex="1" parent="1">
          <mxGeometry x="1020" y="414" width="60" height="30" as="geometry" />
        </mxCell>
        <mxCell id="WUC8Y3ZfEU8SXZrQRKzo-60" style="edgeStyle=orthogonalEdgeStyle;rounded=0;orthogonalLoop=1;jettySize=auto;html=1;exitX=0;exitY=0.75;exitDx=0;exitDy=0;entryX=1;entryY=0.75;entryDx=0;entryDy=0;fontSize=17;" edge="1" parent="1" source="WUC8Y3ZfEU8SXZrQRKzo-34" target="WUC8Y3ZfEU8SXZrQRKzo-58">
          <mxGeometry relative="1" as="geometry" />
        </mxCell>
        <mxCell id="WUC8Y3ZfEU8SXZrQRKzo-34" value="Request Status Service" style="rounded=0;whiteSpace=wrap;html=1;fontSize=17;fillColor=#f8cecc;strokeColor=#b85450;" vertex="1" parent="1">
          <mxGeometry x="833" y="160" width="156" height="100" as="geometry" />
        </mxCell>
        <mxCell id="WUC8Y3ZfEU8SXZrQRKzo-49" style="edgeStyle=orthogonalEdgeStyle;rounded=0;orthogonalLoop=1;jettySize=auto;html=1;exitX=0;exitY=0.75;exitDx=0;exitDy=0;entryX=1;entryY=0.75;entryDx=0;entryDy=0;fontSize=17;" edge="1" parent="1" source="WUC8Y3ZfEU8SXZrQRKzo-37" target="WUC8Y3ZfEU8SXZrQRKzo-47">
          <mxGeometry relative="1" as="geometry" />
        </mxCell>
        <mxCell id="WUC8Y3ZfEU8SXZrQRKzo-37" value="Result Service" style="rounded=0;whiteSpace=wrap;html=1;fontSize=17;fillColor=#f8cecc;strokeColor=#b85450;" vertex="1" parent="1">
          <mxGeometry x="835.5" y="513" width="151" height="97" as="geometry" />
        </mxCell>
        <mxCell id="WUC8Y3ZfEU8SXZrQRKzo-40" value="id + Результат" style="text;html=1;align=center;verticalAlign=middle;whiteSpace=wrap;rounded=0;fontSize=17;fontStyle=1" vertex="1" parent="1">
          <mxGeometry x="926" y="463" width="114" height="30" as="geometry" />
        </mxCell>
        <mxCell id="WUC8Y3ZfEU8SXZrQRKzo-41" value="id&amp;nbsp; + Статус" style="text;html=1;align=center;verticalAlign=middle;whiteSpace=wrap;rounded=0;fontSize=17;fontStyle=1" vertex="1" parent="1">
          <mxGeometry x="911" y="282" width="120" height="30" as="geometry" />
        </mxCell>
        <mxCell id="WUC8Y3ZfEU8SXZrQRKzo-48" style="edgeStyle=orthogonalEdgeStyle;rounded=0;orthogonalLoop=1;jettySize=auto;html=1;exitX=1;exitY=0.25;exitDx=0;exitDy=0;entryX=0;entryY=0.25;entryDx=0;entryDy=0;fontSize=17;" edge="1" parent="1" source="WUC8Y3ZfEU8SXZrQRKzo-47" target="WUC8Y3ZfEU8SXZrQRKzo-37">
          <mxGeometry relative="1" as="geometry" />
        </mxCell>
        <mxCell id="WUC8Y3ZfEU8SXZrQRKzo-54" style="edgeStyle=orthogonalEdgeStyle;rounded=0;orthogonalLoop=1;jettySize=auto;html=1;exitX=1.003;exitY=0.84;exitDx=0;exitDy=0;exitPerimeter=0;entryX=0;entryY=0.25;entryDx=0;entryDy=0;fontSize=17;" edge="1" parent="1" source="WUC8Y3ZfEU8SXZrQRKzo-25" target="WUC8Y3ZfEU8SXZrQRKzo-47">
          <mxGeometry relative="1" as="geometry">
            <mxPoint x="480" y="550" as="targetPoint" />
          </mxGeometry>
        </mxCell>
        <mxCell id="WUC8Y3ZfEU8SXZrQRKzo-47" value="Контроллер&amp;nbsp;&lt;div&gt;Result&lt;/div&gt;" style="rounded=0;whiteSpace=wrap;html=1;fontSize=17;fillColor=#e1d5e7;strokeColor=#9673a6;" vertex="1" parent="1">
          <mxGeometry x="514.5" y="513" width="151" height="97" as="geometry" />
        </mxCell>
        <mxCell id="WUC8Y3ZfEU8SXZrQRKzo-52" value="Результат" style="text;html=1;align=center;verticalAlign=middle;whiteSpace=wrap;rounded=0;fontSize=17;fontStyle=1" vertex="1" parent="1">
          <mxGeometry x="720" y="590" width="60" height="30" as="geometry" />
        </mxCell>
        <mxCell id="WUC8Y3ZfEU8SXZrQRKzo-53" style="edgeStyle=orthogonalEdgeStyle;rounded=0;orthogonalLoop=1;jettySize=auto;html=1;exitX=0;exitY=0.75;exitDx=0;exitDy=0;entryX=1.006;entryY=0.947;entryDx=0;entryDy=0;entryPerimeter=0;fontSize=17;" edge="1" parent="1" source="WUC8Y3ZfEU8SXZrQRKzo-47" target="WUC8Y3ZfEU8SXZrQRKzo-25">
          <mxGeometry relative="1" as="geometry" />
        </mxCell>
        <mxCell id="WUC8Y3ZfEU8SXZrQRKzo-57" value="Результат" style="text;html=1;align=center;verticalAlign=middle;whiteSpace=wrap;rounded=0;fontSize=17;fontStyle=1" vertex="1" parent="1">
          <mxGeometry x="390" y="590" width="60" height="30" as="geometry" />
        </mxCell>
        <mxCell id="WUC8Y3ZfEU8SXZrQRKzo-59" style="edgeStyle=orthogonalEdgeStyle;rounded=0;orthogonalLoop=1;jettySize=auto;html=1;exitX=1;exitY=0.25;exitDx=0;exitDy=0;entryX=0;entryY=0.25;entryDx=0;entryDy=0;fontSize=17;" edge="1" parent="1" source="WUC8Y3ZfEU8SXZrQRKzo-58" target="WUC8Y3ZfEU8SXZrQRKzo-34">
          <mxGeometry relative="1" as="geometry" />
        </mxCell>
        <mxCell id="WUC8Y3ZfEU8SXZrQRKzo-58" value="Контроллер&lt;div&gt;Status&lt;/div&gt;" style="rounded=0;whiteSpace=wrap;html=1;fontSize=17;fillColor=#e1d5e7;strokeColor=#9673a6;" vertex="1" parent="1">
          <mxGeometry x="512" y="160" width="156" height="100" as="geometry" />
        </mxCell>
        <mxCell id="WUC8Y3ZfEU8SXZrQRKzo-62" value="Статус" style="text;html=1;align=center;verticalAlign=middle;whiteSpace=wrap;rounded=0;fontSize=17;fontStyle=1" vertex="1" parent="1">
          <mxGeometry x="720" y="240" width="60" height="30" as="geometry" />
        </mxCell>
        <mxCell id="WUC8Y3ZfEU8SXZrQRKzo-63" style="edgeStyle=orthogonalEdgeStyle;rounded=0;orthogonalLoop=1;jettySize=auto;html=1;exitX=0;exitY=0.75;exitDx=0;exitDy=0;entryX=1.015;entryY=0.166;entryDx=0;entryDy=0;entryPerimeter=0;fontSize=17;" edge="1" parent="1" target="WUC8Y3ZfEU8SXZrQRKzo-25">
          <mxGeometry relative="1" as="geometry">
            <mxPoint x="512" y="235" as="sourcePoint" />
            <mxPoint x="347" y="235" as="targetPoint" />
          </mxGeometry>
        </mxCell>
        <mxCell id="WUC8Y3ZfEU8SXZrQRKzo-64" style="edgeStyle=orthogonalEdgeStyle;rounded=0;orthogonalLoop=1;jettySize=auto;html=1;exitX=1.015;exitY=0.056;exitDx=0;exitDy=0;entryX=0;entryY=0.25;entryDx=0;entryDy=0;exitPerimeter=0;fontSize=17;" edge="1" parent="1" source="WUC8Y3ZfEU8SXZrQRKzo-25">
          <mxGeometry relative="1" as="geometry">
            <mxPoint x="347" y="185" as="sourcePoint" />
            <mxPoint x="512" y="185" as="targetPoint" />
          </mxGeometry>
        </mxCell>
        <mxCell id="WUC8Y3ZfEU8SXZrQRKzo-66" value="Статус" style="text;html=1;align=center;verticalAlign=middle;whiteSpace=wrap;rounded=0;fontSize=17;fontStyle=1" vertex="1" parent="1">
          <mxGeometry x="399" y="240" width="60" height="30" as="geometry" />
        </mxCell>
        <mxCell id="WUC8Y3ZfEU8SXZrQRKzo-67" value="IRequestHandler" style="rounded=0;whiteSpace=wrap;html=1;fontSize=17;fillColor=#fff2cc;strokeColor=#d6b656;" vertex="1" parent="1">
          <mxGeometry x="1350" y="172" width="170" height="110" as="geometry" />
        </mxCell>
        <mxCell id="WUC8Y3ZfEU8SXZrQRKzo-83" style="edgeStyle=orthogonalEdgeStyle;rounded=0;orthogonalLoop=1;jettySize=auto;html=1;exitX=1;exitY=0.5;exitDx=0;exitDy=0;fontSize=17;" edge="1" parent="1" source="WUC8Y3ZfEU8SXZrQRKzo-72">
          <mxGeometry relative="1" as="geometry">
            <mxPoint x="1650" y="380.33333333333337" as="targetPoint" />
          </mxGeometry>
        </mxCell>
        <mxCell id="WUC8Y3ZfEU8SXZrQRKzo-72" value="IRequestHandler" style="rounded=0;whiteSpace=wrap;html=1;fontSize=17;fillColor=#fff2cc;strokeColor=#d6b656;" vertex="1" parent="1">
          <mxGeometry x="1350" y="325" width="170" height="110" as="geometry" />
        </mxCell>
        <mxCell id="WUC8Y3ZfEU8SXZrQRKzo-73" value="IRequestHandler" style="rounded=0;whiteSpace=wrap;html=1;fontSize=17;fillColor=#fff2cc;strokeColor=#d6b656;" vertex="1" parent="1">
          <mxGeometry x="1350" y="493" width="170" height="110" as="geometry" />
        </mxCell>
        <mxCell id="WUC8Y3ZfEU8SXZrQRKzo-74" value="" style="endArrow=classic;startArrow=classic;html=1;rounded=0;entryX=0;entryY=0.618;entryDx=0;entryDy=0;entryPerimeter=0;fontSize=17;" edge="1" parent="1" target="WUC8Y3ZfEU8SXZrQRKzo-67">
          <mxGeometry width="50" height="50" relative="1" as="geometry">
            <mxPoint x="1260" y="380" as="sourcePoint" />
            <mxPoint x="1310" y="330" as="targetPoint" />
          </mxGeometry>
        </mxCell>
        <mxCell id="WUC8Y3ZfEU8SXZrQRKzo-77" value="" style="endArrow=classic;startArrow=classic;html=1;rounded=0;entryX=0;entryY=0.5;entryDx=0;entryDy=0;fontSize=17;" edge="1" parent="1" target="WUC8Y3ZfEU8SXZrQRKzo-72">
          <mxGeometry width="50" height="50" relative="1" as="geometry">
            <mxPoint x="1260" y="380" as="sourcePoint" />
            <mxPoint x="1310" y="330" as="targetPoint" />
          </mxGeometry>
        </mxCell>
        <mxCell id="WUC8Y3ZfEU8SXZrQRKzo-78" value="" style="endArrow=classic;startArrow=classic;html=1;rounded=0;entryX=0;entryY=0.5;entryDx=0;entryDy=0;fontSize=17;" edge="1" parent="1" target="WUC8Y3ZfEU8SXZrQRKzo-73">
          <mxGeometry width="50" height="50" relative="1" as="geometry">
            <mxPoint x="1260" y="380" as="sourcePoint" />
            <mxPoint x="1310" y="330" as="targetPoint" />
          </mxGeometry>
        </mxCell>
        <mxCell id="WUC8Y3ZfEU8SXZrQRKzo-79" value="SQL" style="shape=cylinder3;whiteSpace=wrap;html=1;boundedLbl=1;backgroundOutline=1;size=15;fontSize=17;fillColor=#dae8fc;strokeColor=#6c8ebf;" vertex="1" parent="1">
          <mxGeometry x="1650" y="306" width="111" height="148" as="geometry" />
        </mxCell>
        <mxCell id="WUC8Y3ZfEU8SXZrQRKzo-82" value="" style="endArrow=classic;html=1;rounded=0;entryX=0;entryY=0.5;entryDx=0;entryDy=0;entryPerimeter=0;fontSize=17;" edge="1" parent="1" target="WUC8Y3ZfEU8SXZrQRKzo-79">
          <mxGeometry width="50" height="50" relative="1" as="geometry">
            <mxPoint x="1520" y="234" as="sourcePoint" />
            <mxPoint x="1570" y="184" as="targetPoint" />
          </mxGeometry>
        </mxCell>
        <mxCell id="WUC8Y3ZfEU8SXZrQRKzo-84" value="" style="endArrow=classic;html=1;rounded=0;fontSize=17;" edge="1" parent="1">
          <mxGeometry width="50" height="50" relative="1" as="geometry">
            <mxPoint x="1520" y="549" as="sourcePoint" />
            <mxPoint x="1649" y="380" as="targetPoint" />
          </mxGeometry>
        </mxCell>
        <mxCell id="WUC8Y3ZfEU8SXZrQRKzo-85" value="id задачи" style="text;html=1;align=center;verticalAlign=middle;whiteSpace=wrap;rounded=0;fontSize=17;fontStyle=1" vertex="1" parent="1">
          <mxGeometry x="390" y="493" width="60" height="30" as="geometry" />
        </mxCell>
        <mxCell id="WUC8Y3ZfEU8SXZrQRKzo-86" value="id задачи" style="text;html=1;align=center;verticalAlign=middle;whiteSpace=wrap;rounded=0;fontSize=17;fontStyle=1" vertex="1" parent="1">
          <mxGeometry x="720" y="493" width="60" height="30" as="geometry" />
        </mxCell>
        <mxCell id="WUC8Y3ZfEU8SXZrQRKzo-87" value="id задачи" style="text;html=1;align=center;verticalAlign=middle;whiteSpace=wrap;rounded=0;fontSize=17;fontStyle=1" vertex="1" parent="1">
          <mxGeometry x="399" y="142" width="60" height="30" as="geometry" />
        </mxCell>
        <mxCell id="WUC8Y3ZfEU8SXZrQRKzo-88" value="id задачи" style="text;html=1;align=center;verticalAlign=middle;whiteSpace=wrap;rounded=0;fontSize=17;fontStyle=1" vertex="1" parent="1">
          <mxGeometry x="720" y="142" width="60" height="30" as="geometry" />
        </mxCell>
      </root>
    </mxGraphModel>
  </diagram>
</mxfile>
